<svg width="489" height="279" viewBox="0 0 489 279" fill="none" xmlns="http://www.w3.org/2000/svg">
<path d="M47.0057 138.319H69.0212C64.4744 147.896 55.0001 155.121 44.0924 153.525C35.4242 152.257 27.7887 145.571 24.3063 137.7C16.7907 120.718 24.1001 96.3991 43.794 93.1553C54.3498 91.4155 64.5356 97.3824 68.7913 107.226H89.8924C87.2783 91.4452 76.2556 78.1397 59.8321 73.8055C44.4584 69.7477 27.2729 72.7097 15.5622 83.7791C-6.71069 104.831 -5.16431 148.682 20.7746 166.059C35.5073 175.93 58.1604 177.471 71.3848 164.16V171.688H90.4069V118.855C81.8015 118.856 47.0336 118.855 47.0336 118.855L47.0057 138.319Z" fill="white"/>
<path d="M103.851 171.659H126.332V73.8865H103.851V171.659Z" fill="white"/>
<path d="M173.222 155.595C162.509 155.595 158.988 146.771 158.77 135.797C158.55 124.803 162.845 116.019 173.145 116.049C183.079 116.078 187.319 124.864 187.319 135.84C187.319 146.816 183.155 155.595 173.222 155.595ZM173.305 97.8901C149.444 97.9496 136.393 114.901 136.213 135.773C136.033 156.614 149.475 173.487 173.357 173.549C196.838 173.609 209.732 156.76 209.732 135.84C209.732 114.92 196.786 97.8306 173.305 97.8901Z" fill="white"/>
<path d="M268.64 143.53C266.867 152.275 259.386 158.738 249.748 153.992C241.865 150.112 241.091 136.337 242.883 128.041C245.306 116.815 254.994 113.419 262.11 117.295C269.71 121.433 270.551 135.27 268.64 143.53ZM282.561 107.076C272.619 96.1955 253.801 94.3505 242.773 104.823V73.886H220.292V171.672H241.772V166.693C248.067 172.986 259.22 174.614 267.602 172.862C276.272 171.05 283.437 165.185 287.319 157.236C294.564 142.402 293.714 119.814 282.561 107.076Z" fill="white"/>
<path d="M344.912 143.395C344.912 148.318 343.729 153.828 338.85 155.783C332.11 158.484 326.338 156.652 324.656 155.019C322.738 153.156 321.082 146.02 327.891 143.5C330.593 142.501 333.499 142.108 336.331 141.728C339.281 141.331 342.073 140.853 344.912 139.896V143.395ZM367.388 122.163C367.384 117.263 367.279 112.245 364.28 108.104C356.278 97.054 338.899 96.9155 326.759 98.6325C313.724 100.477 302.984 108.392 302.441 122.526L302.4 124.027H324.835C324.992 120.313 325.937 116.462 329.695 115.184C333.214 113.987 340.359 113.553 343.355 116.536C344.646 117.821 345.188 120.444 344.886 122.454C344.605 124.326 342.9 125.061 341.307 125.795C337.757 127.432 331.951 127.223 324.752 128.456C314.956 130.135 304.472 132.93 301.352 143.963C298.433 154.286 301.728 165.868 311.443 170.539C321.796 175.515 337.263 174.193 346.308 167.115C346.337 167.241 346.308 171.688 346.308 171.688H367.388C367.388 171.688 367.402 138.671 367.388 122.163Z" fill="white"/>
<path d="M402.271 73.8902H379.789V171.691H402.271V73.8902Z" fill="white"/>
<path d="M149.895 191.852V240.929L122.01 191.852H103.851V274.203H121.909V225.22L149.694 274.203H167.954V191.852H149.895Z" fill="white"/>
<path d="M196.357 256.371V240.318H231.262V223.515H196.357V209.94H234.386V191.896H177.409V274.203H235.194V256.371H196.357Z" fill="white"/>
<path d="M321.792 191.852L311.045 241.265L299.835 191.852H282.552L271.169 240.619L260.795 191.852H241.676L261.618 274.203H280.11L291.048 225.356L302.171 274.203H320.353L340.611 191.852H321.792Z" fill="white"/>
<path d="M338.42 244.603L338.398 246.27C338.322 251.406 339.202 255.925 340.998 259.709C342.789 263.473 345.245 266.622 348.288 269.063C351.3 271.486 354.813 273.275 358.73 274.406C362.595 275.506 366.624 276.07 370.707 276.07C375.761 276.07 380.288 275.409 384.164 274.118C388.09 272.796 391.433 270.929 394.103 268.543C396.812 266.138 398.879 263.229 400.253 259.908C401.62 256.592 402.309 252.967 402.309 249.123C402.309 244.374 401.361 240.396 399.476 237.281C397.647 234.259 395.438 231.806 392.915 229.997C390.433 228.211 387.893 226.891 385.37 226.07C382.946 225.294 381.011 224.739 379.614 224.427C379.692 224.451 368.726 221.354 368.726 221.354C366.033 220.572 363.905 219.782 362.405 219.014C360.786 218.19 360.137 217.467 359.876 217.007C359.495 216.322 359.299 215.353 359.299 214.125C359.299 212.77 359.552 211.671 360.054 210.852C360.615 209.929 361.312 209.182 362.182 208.565C363.061 207.95 364.061 207.504 365.159 207.247C366.33 206.977 367.519 206.842 368.686 206.842C370.531 206.842 372.246 207.02 373.79 207.358C375.248 207.686 376.556 208.245 377.674 209.015C378.745 209.753 379.581 210.748 380.232 212.051C380.895 213.376 381.295 215.11 381.416 217.212L381.504 218.796H399.848V217.104C399.848 212.273 398.987 208.071 397.285 204.628C395.596 201.203 393.278 198.357 390.394 196.143C387.549 193.969 384.262 192.38 380.625 191.416C377.053 190.468 373.273 189.992 369.394 189.992C366.037 189.992 362.638 190.491 359.286 191.486C355.888 192.493 352.804 194.068 350.101 196.164C347.371 198.284 345.132 200.976 343.445 204.155C341.732 207.392 340.859 211.228 340.859 215.568C340.859 219.45 341.55 222.824 342.915 225.599C344.263 228.343 346.054 230.67 348.248 232.501C350.376 234.285 352.825 235.759 355.514 236.882C358.134 237.979 360.85 238.907 363.59 239.656C366.193 240.458 368.834 241.211 371.396 241.875C373.873 242.51 376.117 243.267 378.061 244.119C379.886 244.924 381.371 245.914 382.472 247.077C383.415 248.086 383.87 249.387 383.87 251.069C383.87 252.675 383.524 253.941 382.793 254.926C381.985 256.025 381.002 256.869 379.782 257.501C378.517 258.159 377.125 258.613 375.66 258.848C374.132 259.093 372.67 259.215 371.315 259.215C369.354 259.215 367.436 258.957 365.617 258.441C363.849 257.942 362.298 257.174 361.011 256.155C359.761 255.174 358.74 253.865 357.977 252.269C357.224 250.676 356.833 248.67 356.833 246.3V244.603H338.42Z" fill="white"/>
<path d="M391.029 2.76773V51.0552L456.343 99.2998L423.686 123.426L423.685 171.686L489 123.426V75.1736L391.029 2.76773Z" fill="white"/>
</svg>
