<?xml version="1.0" encoding="UTF-8"?>
<svg width="43px" height="10px" viewBox="0 0 43 10" version="1.1" xmlns="http://www.w3.org/2000/svg" xmlns:xlink="http://www.w3.org/1999/xlink">
    <!-- Generator: sketchtool 53.2 (72643) - https://sketchapp.com -->
    <title>D15F0234-7D8B-4B98-8496-91DEE5BE3926</title>
    <desc>Created with sketchtool.</desc>
    <g id="Desktop-/-laptop" stroke="none" stroke-width="1" fill="none" fill-rule="evenodd">
        <g id="d_header_footer" transform="translate(-89.000000, -982.000000)" fill="#FFFFFF" fill-rule="nonzero">
            <g id="Footer" transform="translate(0.000000, 744.000000)">
                <g id="Corus-footer" transform="translate(0.000000, 206.000000)">
                    <g id="Logo/corus" transform="translate(88.000000, 32.000000)">
                        <path d="M7.44089415,3.17982216 C7.00845226,2.75249599 6.42528554,2.48902185 5.78208074,2.48902185 C4.44948813,2.48902185 3.36922319,3.61326542 3.36922319,5.00010928 C3.36922319,6.38695301 4.44948813,7.51075958 5.78208074,7.51075958 C6.42528554,7.51075958 7.00845226,7.24728545 7.44089415,6.81995942 L8.75795254,8.92338277 C7.93925191,9.59670549 6.90600977,10 5.78208074,10 C3.12865112,10 0.977777778,7.76112556 0.977777778,5.00010928 C0.977777778,2.23865601 3.12865112,0.000218464561 5.78208074,0.000218464561 C6.90600977,0.000218464561 7.93925191,0.403076047 8.75795254,1.07639875 L7.44089415,3.17982216 Z M13.0776688,2.48893448 C11.7450761,2.48893448 10.6648111,3.61317805 10.6648111,5.00002191 C10.6648111,6.38686564 11.7450761,7.5111092 13.0776688,7.5111092 C14.4102621,7.5111092 15.4905267,6.38686564 15.4905267,5.00002191 C15.4905267,3.61317805 14.4102621,2.48893448 13.0776688,2.48893448 Z M13.0776688,9.99991263 C10.4242391,9.99991263 8.27336566,7.76147504 8.27336566,5.00002191 C8.27336566,2.23856864 10.4242391,0.000131081519 13.0776688,0.000131081519 C15.7310983,0.000131081519 17.8819717,2.23856864 17.8819717,5.00002191 C17.8819717,7.76147504 15.7310983,9.99991263 13.0776688,9.99991263 Z M23.2649494,0.142267276 L23.9467804,0.142267276 L23.9467804,2.67039516 L23.5072013,2.67039516 C21.7173951,2.67039516 21.0158315,4.17739718 21.0158315,5.62716017 L21.0158315,9.79511939 L18.5874399,9.79511939 L18.5874399,5.19196911 C18.575684,2.60878685 19.8595748,0.142267276 23.2649494,0.142267276 Z M30.3933122,0.000262163038 L32.8217748,0.000262163038 L32.8217037,5.65119174 C32.8338794,8.30690581 31.2808669,9.79511939 28.7538111,9.79511939 C26.2267554,9.79511939 24.6859199,8.37113581 24.6859199,5.62541242 L24.6859199,0.000262163038 L27.1143114,0.000262163038 L27.1143114,5.31693359 C27.1143114,6.72780897 27.7675922,7.31811335 28.7538111,7.31811335 C29.7396116,7.31811335 30.3933122,6.70202952 30.3933122,5.34227606 L30.3933122,0.000262163038 Z M39.5408447,4.80152064 C39.8145851,5.00076469 40.641263,5.60242942 40.641263,6.87479524 C40.641263,7.76047016 40.2625607,8.52598698 39.5467227,9.0892011 C39.3829827,9.22902152 39.1075633,9.43307194 38.7481752,9.59299155 C37.9504658,9.96002015 37.053254,9.99978158 36.7047822,9.99978158 C36.5989808,9.99978158 35.6455095,9.99890771 34.8293282,9.72975339 C33.8531847,9.40816643 33.1574991,8.85849742 32.9513543,8.68328496 L34.2075345,6.676862 C34.5799391,6.91761529 35.6022652,7.52845573 36.5511178,7.64249665 C37.3383305,7.73687548 37.8681761,7.57957752 37.9118402,7.04389054 C37.9256948,6.87479524 37.8614586,6.73016844 37.7527189,6.59078505 C37.4995506,6.2604592 36.8802781,6.0686432 36.4705071,5.91396673 L36.3932557,5.88469195 C35.857952,5.65617284 35.2978759,5.40100059 34.7957396,5.06849023 C34.2209707,4.67568224 33.5383002,3.97963868 33.5383002,2.88772865 C33.5383002,2.03132851 33.9745199,1.47161001 34.1181075,1.28765876 C34.9863507,0.222838861 36.2882938,-5.68434189e-14 37.2283301,-5.68434189e-14 C37.3278339,-5.68434189e-14 38.2271445,0.00655407596 39.065998,0.338627583 C39.7545465,0.611277421 40.2050419,0.875188538 40.4523309,1.04035139 L39.3342802,2.8261202 C38.9295489,2.60502928 38.0222603,2.16066251 37.2623385,2.16066251 C36.7816138,2.16066251 36.2673019,2.3205821 36.2673019,2.79553446 C36.2798973,3.37360452 37.0889414,3.65237159 37.6133301,3.8568589 C37.6649709,3.87695811 37.7140932,3.89618335 37.7594363,3.91409792 C38.8107323,4.30297347 39.1000063,4.49216798 39.5408447,4.80152064 Z M43.7555553,8.42850406 C43.7555553,9.22242188 43.137121,9.86559581 42.3746806,9.86559581 C41.6118191,9.86559581 40.9933848,9.22242188 40.9933848,8.42850406 C40.9933848,7.6345863 41.6118191,6.99141233 42.3746806,6.99141233 C43.137121,6.99141233 43.7555553,7.6345863 43.7555553,8.42850406 Z" id="path3360-2"></path>
                    </g>
                </g>
            </g>
        </g>
    </g>
</svg>